<svg width="194" height="119" viewBox="0 0 194 119" fill="none" xmlns="http://www.w3.org/2000/svg">
<path d="M144.5 31L135.633 18.9667C132.268 14.3994 127.782 10.7769 122.609 8.44884L116.959 5.90659C112.702 3.99068 108.086 3 103.417 3H50.75C47.2982 3 44.5 5.79822 44.5 9.25V9.25C44.5 12.7018 47.2982 15.5 50.75 15.5H104.25C107.702 15.5 110.5 18.2982 110.5 21.75V21.75C110.5 25.2018 107.702 28 104.25 28H9C5.68629 28 3 30.6863 3 34V34C3 37.3137 5.68629 40 9 40H152.751C160.044 40 167.132 42.4163 172.907 46.8712L176.419 49.5803C179.775 52.1692 182.601 55.3803 184.742 59.0382L185.727 60.7207C190.654 69.1385 191.605 79.305 188.325 88.4907L186.964 92.2997C184.708 98.6163 180.581 104.095 175.133 108.007L172.626 109.807C167.017 113.834 160.286 116 153.381 116H77.5C73.634 116 70.5 112.866 70.5 109V109C70.5 105.134 73.634 102 77.5 102H104.5C107.814 102 110.5 99.3137 110.5 96V96C110.5 92.6863 107.814 90 104.5 90H33.25C29.5221 90 26.5 86.9779 26.5 83.25V83.25C26.5 79.5221 29.5221 76.5 33.25 76.5H96.75C99.9256 76.5 102.5 73.9256 102.5 70.75V70.75C102.5 67.5744 99.9256 65 96.75 65H65.1849C60.5348 65 54.7239 64.1656 53.9484 59.5806V59.5806C52.9438 53.6413 61.4771 51 67.5008 51H125" stroke="#1E40AF" stroke-width="5" stroke-linecap="round"/>
<path d="M146.5 49L156.028 70.0404C157.315 72.8828 155.713 76.1968 152.686 76.9536L150.287 77.5532C148.061 78.1096 146.5 80.1095 146.5 82.4039V96.5C146.5 99.2614 144.261 101.5 141.5 101.5H133.5" stroke="#1E40AF" stroke-width="5" stroke-linecap="round"/>
</svg>
